<svg width="137" height="20" fill="none" xmlns="http://www.w3.org/2000/svg"><path d="M.547 15.733v-1.71l1.514-.292V3.526L.547 3.233V1.514H4.95l6.192 9.863.058-.01V3.527l-1.816-.293V1.514h5.888v1.719l-1.523.293v12.207h-2.754L4.668 5.967l-.059.01v7.754l1.827.293v1.709H.546zm20.79.205c-1.008 0-1.89-.221-2.646-.664a4.656 4.656 0 0 1-1.757-1.846c-.41-.781-.616-1.673-.616-2.676v-.39c0-1.048.196-1.976.586-2.783.39-.814.941-1.452 1.65-1.914.717-.47 1.56-.7 2.53-.694.957 0 1.761.189 2.412.567a3.651 3.651 0 0 1 1.485 1.63c.338.71.507 1.57.507 2.579v1.552h-6.21l-.02.059c.039.462.153.876.342 1.24.195.358.468.641.82.85.351.202.778.303 1.28.303.52 0 1.005-.066 1.454-.196a5.74 5.74 0 0 0 1.328-.595l.772 1.757c-.436.352-.986.645-1.65.88-.658.227-1.413.341-2.266.341zm-2.04-6.523h3.525V9.16c0-.43-.058-.798-.175-1.104a1.402 1.402 0 0 0-.547-.723c-.248-.169-.57-.253-.967-.253-.378 0-.697.1-.957.302-.26.196-.466.466-.615.81-.144.346-.241.737-.293 1.173l.029.049zm10.967 6.318L27.803 7.12l-1.29-.235V5.167h5.108v1.708l-1.113.215.976 4.112.196.81h.058l.264-.81 2.168-6.035h1.914l2.1 6.113.273.86h.059l.254-.86 1.152-4.18-1.23-.225V5.167h5v1.718l-1.231.235-2.686 8.613h-2.402l-1.933-5.235-.342-1.162h-.059l-.342 1.172-1.904 5.225h-2.53zm18.867.205c-.788 0-1.524-.075-2.207-.225a10.1 10.1 0 0 1-1.953-.644l-.03-2.988h1.983l.38 1.523c.222.11.463.199.723.264.267.065.57.097.908.097.639 0 1.088-.104 1.348-.312.26-.209.39-.469.39-.781 0-.293-.14-.55-.42-.772-.273-.228-.823-.426-1.65-.596-1.25-.26-2.17-.664-2.763-1.21-.593-.547-.889-1.247-.889-2.1 0-.586.147-1.12.44-1.602.3-.481.752-.869 1.357-1.162.612-.293 1.393-.44 2.344-.44.794 0 1.52.079 2.178.235.664.15 1.22.348 1.67.596l.029 2.89h-1.973l-.303-1.386a1.85 1.85 0 0 0-.625-.293 2.997 2.997 0 0 0-.8-.098c-.502 0-.886.101-1.153.303a.937.937 0 0 0-.4.781.99.99 0 0 0 .137.508c.097.156.286.303.566.44.28.136.687.266 1.22.39 1.31.3 2.263.7 2.862 1.201.599.495.898 1.191.898 2.09 0 .983-.358 1.777-1.074 2.383-.71.605-1.774.908-3.193.908zm5.498-.205v-1.71l1.514-.292V3.526l-1.514-.293V1.514h11.035v3.838h-2.187l-.127-1.64h-4.356v3.574h4.815v2.197h-4.815v4.062h4.59l.127-1.699h2.168v3.887h-11.25zm12.52 0v-1.71l1.357-.175 3.027-3.408-2.861-3.389-1.28-.166V5.167h5.235v1.64l-.82.127 1.533 2.012 1.533-2.012-.908-.127v-1.64h5.049v1.718l-1.182.166-2.705 3.272 3.017 3.525 1.3.176v1.709h-5.42v-1.63l.917-.128-1.63-2.021-1.592 2.03.898.118v1.63h-5.469zm13.144 4.062v-1.718l1.377-.293V7.178l-1.523-.293V5.167h4.14l.137 1.23c.312-.456.69-.807 1.133-1.055.442-.247.97-.37 1.582-.37.853 0 1.582.234 2.187.702.606.463 1.068 1.11 1.387 1.944.325.833.488 1.806.488 2.92v.205c0 1.041-.163 1.953-.488 2.734-.32.775-.785 1.38-1.397 1.816-.605.43-1.338.645-2.197.645-.566 0-1.068-.1-1.504-.303a3.077 3.077 0 0 1-1.103-.908v3.057l1.377.293v1.718h-5.596zm5.976-6.045c.73 0 1.257-.27 1.583-.81.332-.54.498-1.273.498-2.197v-.205c0-.671-.075-1.254-.225-1.748-.15-.502-.38-.892-.693-1.172-.306-.287-.7-.43-1.182-.43-.39 0-.736.088-1.035.264a1.915 1.915 0 0 0-.703.752v4.628c.175.3.41.528.703.684.3.156.65.235 1.054.235zm5.85 1.983v-1.71l1.377-.292V2.511l-1.523-.294V.5h4.375V13.73l1.377.293v1.709h-5.606zm11.387.205c-1.042 0-1.937-.228-2.686-.684a4.488 4.488 0 0 1-1.718-1.894c-.398-.814-.596-1.748-.596-2.803v-.205c0-1.048.198-1.976.596-2.783a4.488 4.488 0 0 1 1.709-1.904c.748-.463 1.64-.694 2.675-.694 1.049 0 1.944.231 2.686.694a4.505 4.505 0 0 1 1.709 1.894c.397.807.596 1.738.596 2.793v.205c0 1.055-.199 1.99-.596 2.803a4.505 4.505 0 0 1-1.709 1.894c-.742.456-1.631.684-2.666.684zm0-2.188c.495 0 .898-.133 1.211-.4.312-.267.543-.638.693-1.113.15-.482.225-1.042.225-1.68v-.205c0-.625-.075-1.175-.225-1.65-.15-.482-.384-.856-.703-1.123-.312-.274-.719-.41-1.221-.41-.488 0-.892.136-1.211.41-.319.267-.553.64-.703 1.123-.143.475-.215 1.025-.215 1.65v.205c0 .638.072 1.198.215 1.68.15.482.384.856.703 1.123.319.26.73.39 1.231.39zm6.465 1.983v-1.71l1.367-.292V7.178l-1.514-.293V5.167h4.17l.108 1.308.019.234c.261-.572.583-1.005.967-1.298.384-.293.843-.44 1.377-.44.169 0 .355.016.556.049.202.026.381.062.538.107l-.303 2.627-1.416-.078c-.404-.02-.733.05-.986.205-.248.157-.469.381-.665.674v5.176l1.368.293v1.709h-5.586zm13.3.205c-1.009 0-1.891-.221-2.646-.664a4.66 4.66 0 0 1-1.758-1.846c-.41-.781-.615-1.673-.615-2.676v-.39c0-1.048.195-1.976.586-2.783.391-.814.941-1.452 1.65-1.914.716-.47 1.56-.7 2.53-.694.957 0 1.761.189 2.412.567a3.647 3.647 0 0 1 1.484 1.63c.339.71.508 1.57.508 2.579v1.552h-6.211l-.02.059c.039.462.153.876.342 1.24.196.358.469.641.821.85.351.202.778.303 1.279.303.521 0 1.006-.066 1.455-.196a5.74 5.74 0 0 0 1.328-.595l.772 1.757c-.437.352-.987.645-1.651.88-.657.227-1.413.341-2.266.341zm-2.041-6.523h3.526V9.16c0-.43-.059-.798-.176-1.104a1.403 1.403 0 0 0-.547-.723c-.247-.169-.569-.253-.967-.253-.377 0-.696.1-.957.302-.26.196-.465.466-.615.81a4.42 4.42 0 0 0-.293 1.173l.029.049zm7.725 6.318v-1.71l1.367-.292V7.178l-1.513-.293V5.167h4.17l.107 1.308.019.234c.261-.572.583-1.005.967-1.298.384-.293.843-.44 1.377-.44.169 0 .355.016.557.049.202.026.381.062.537.107l-.303 2.627-1.416-.078c-.403-.02-.732.05-.986.205-.248.157-.469.381-.664.674v5.176l1.367.293v1.709h-5.586z" fill="#1A1B22"/></svg>